<svg width="19.500000" height="19.500000" viewBox="0 0 19.5 19.5" fill="none" xmlns="http://www.w3.org/2000/svg" xmlns:xlink="http://www.w3.org/1999/xlink">
	<desc>
			Created with Pixso.
	</desc>
	<defs/>
	<path id="Vector" d="M4.75 0.75C3.68 0.75 2.67 1.17 1.92 1.92C1.17 2.67 0.75 3.68 0.75 4.75L0.75 14.75C0.75 15.81 1.17 16.82 1.92 17.57C2.67 18.32 3.68 18.75 4.75 18.75L14.75 18.75C15.81 18.75 16.82 18.32 17.57 17.57C18.32 16.82 18.75 15.81 18.75 14.75L18.75 4.75C18.75 3.68 18.32 2.67 17.57 1.92C16.82 1.17 15.81 0.75 14.75 0.75L4.75 0.75Z" stroke="#FFFFFF" stroke-opacity="1.000000" stroke-width="1.500000" stroke-linejoin="round"/>
	<path id="Vector" d="M12.57 12.57C13.32 11.82 13.75 10.81 13.75 9.75C13.75 8.68 13.32 7.67 12.57 6.92C11.82 6.17 10.81 5.75 9.75 5.75C8.68 5.75 7.67 6.17 6.92 6.92C6.17 7.67 5.75 8.68 5.75 9.75C5.75 10.81 6.17 11.82 6.92 12.57C7.67 13.32 8.68 13.75 9.75 13.75C10.81 13.75 11.82 13.32 12.57 12.57Z" stroke="#FFFFFF" stroke-opacity="1.000000" stroke-width="1.500000" stroke-linejoin="round"/>
	<path id="Vector" d="M15.25 5.25C15.51 5.25 15.76 5.14 15.95 4.95C16.14 4.76 16.25 4.51 16.25 4.25C16.25 3.98 16.14 3.73 15.95 3.54C15.76 3.35 15.51 3.25 15.25 3.25C14.98 3.25 14.73 3.35 14.54 3.54C14.35 3.73 14.25 3.98 14.25 4.25C14.25 4.51 14.35 4.76 14.54 4.95C14.73 5.14 14.98 5.25 15.25 5.25Z" fill="#FFFFFF" fill-opacity="1.000000" fill-rule="nonzero"/>
</svg>
