<svg width="20.058960" height="16.646973" viewBox="0 0 20.059 16.647" fill="none" xmlns="http://www.w3.org/2000/svg" xmlns:xlink="http://www.w3.org/1999/xlink">
	<desc>
			Created with Pixso.
	</desc>
	<defs/>
	<path id="Vector" d="M13.9 2C13.14 2 12.41 2.29 11.87 2.83C11.33 3.36 11.01 4.08 11 4.84L10.97 6.42C10.97 6.5 10.95 6.59 10.91 6.66C10.88 6.74 10.83 6.81 10.76 6.86C10.7 6.92 10.62 6.96 10.54 6.98C10.46 7.01 10.38 7.01 10.29 7L8.73 6.79C6.68 6.51 4.71 5.56 2.82 3.99C2.22 7.3 3.39 9.59 6.2 11.36L7.95 12.46C8.03 12.51 8.1 12.58 8.15 12.67C8.2 12.75 8.23 12.85 8.23 12.95C8.23 13.05 8.21 13.14 8.17 13.23C8.13 13.32 8.06 13.4 7.98 13.45L6.39 14.62C7.34 14.68 8.24 14.63 8.98 14.49C13.7 13.54 16.84 9.99 16.84 4.14C16.84 3.66 15.83 2 13.9 2ZM9 4.81C9.02 3.84 9.32 2.91 9.87 2.11C10.41 1.32 11.18 0.7 12.08 0.35C12.97 -0.01 13.96 -0.1 14.9 0.1C15.84 0.29 16.71 0.77 17.39 1.45C18.1 1.45 18.7 1.63 20.05 0.81C19.72 2.45 19.55 3.16 18.84 4.14C18.84 11.78 14.14 15.5 9.38 16.45C6.11 17.1 1.36 16.03 0 14.61C0.69 14.55 3.51 14.25 5.14 13.06C3.76 12.15 -1.73 8.92 1.88 0.23C3.57 2.21 5.29 3.56 7.03 4.27C8.19 4.74 8.47 4.73 9 4.81L9 4.81Z" fill="#FFFFFF" fill-opacity="1.000000" fill-rule="nonzero"/>
	<path id="Vector" d="M17.39 1.45C16.71 0.77 15.84 0.29 14.9 0.1C13.96 -0.1 12.97 -0.01 12.08 0.35C11.18 0.7 10.41 1.32 9.87 2.11C9.36 2.85 9.06 3.71 9.01 4.61C9 4.67 9 4.74 9 4.81L9 4.81C8.93 4.8 8.86 4.79 8.8 4.78C8.38 4.73 8.03 4.68 7.03 4.27C5.34 3.58 3.67 2.29 2.02 0.4C1.98 0.35 1.93 0.29 1.88 0.23C1.85 0.3 1.82 0.37 1.79 0.44C-1.51 8.63 3.36 11.89 4.96 12.94C4.97 12.95 4.99 12.96 5 12.97C5.05 13 5.1 13.03 5.14 13.06C5.08 13.1 5.02 13.14 4.96 13.18C3.48 14.16 1.19 14.49 0.26 14.58C0.15 14.59 0.06 14.6 0 14.61C0.05 14.67 0.12 14.73 0.19 14.79C1.77 16.12 6.25 17.07 9.38 16.45C14.14 15.5 18.84 11.78 18.84 4.14C19.51 3.21 19.7 2.53 20 1.07C20.02 0.99 20.04 0.9 20.05 0.81C19.97 0.85 19.9 0.9 19.82 0.94C18.83 1.5 18.26 1.48 17.71 1.46C17.6 1.45 17.5 1.45 17.39 1.45ZM19.77 1.2Q19.2 1.49 18.72 1.6Q18.45 1.65 18.17 1.66Q18.01 1.67 17.71 1.66Q17.49 1.65 17.39 1.65L17.3 1.65L17.24 1.59Q17 1.35 16.72 1.14Q16.45 0.93 16.15 0.77Q15.84 0.6 15.52 0.48Q15.2 0.36 14.86 0.29Q14.52 0.22 14.18 0.2Q13.83 0.18 13.49 0.21Q13.14 0.24 12.81 0.32Q12.48 0.4 12.15 0.53Q11.83 0.66 11.53 0.83Q11.24 1.01 10.97 1.22Q10.7 1.44 10.46 1.69Q10.23 1.94 10.03 2.22Q9.83 2.51 9.68 2.82Q9.53 3.13 9.42 3.46Q9.32 3.79 9.26 4.12Q9.21 4.42 9.2 4.73L9.56 5.09L8.97 5.01Q8.91 5 8.79 4.98Q8.37 4.93 8.09 4.86Q7.65 4.74 6.95 4.45Q4.41 3.41 1.94 0.61Q0.86 3.33 0.87 5.63Q0.88 7.38 1.52 8.86Q1.61 9.07 1.72 9.28Q2.37 10.55 3.5 11.58Q3.91 11.96 4.39 12.31Q4.67 12.51 5.11 12.8Q5.21 12.86 5.25 12.89L5.49 13.05L5.26 13.22Q4.18 14.01 2.26 14.45Q1.6 14.61 0.89 14.71Q0.68 14.74 0.48 14.76Q0.93 15.09 1.65 15.4Q2.68 15.83 4.01 16.11Q5.37 16.39 6.73 16.43Q8.18 16.48 9.34 16.25Q11.01 15.92 12.47 15.18Q12.62 15.1 12.77 15.02Q14.06 14.32 15.09 13.34Q15.43 13.02 15.75 12.67Q16 12.38 16.23 12.08Q17.25 10.75 17.84 9.08Q18.64 6.86 18.64 4.14L18.64 4.07L18.68 4.02Q18.94 3.67 19.11 3.34Q19.27 3.02 19.4 2.66Q19.51 2.32 19.63 1.83Q19.68 1.6 19.77 1.2ZM12.19 2.31Q11.95 2.47 11.73 2.68Q11.51 2.9 11.34 3.14Q11.17 3.39 11.05 3.67Q10.93 3.95 10.87 4.24Q10.81 4.54 10.8 4.84L10.77 6.41Q10.77 6.46 10.76 6.49Q10.75 6.54 10.73 6.58Q10.72 6.62 10.69 6.65Q10.66 6.68 10.63 6.71Q10.6 6.74 10.56 6.76Q10.53 6.78 10.49 6.79Q10.44 6.8 10.4 6.81Q10.36 6.81 10.32 6.8L8.76 6.59Q5.77 6.18 2.95 3.84L2.69 3.62L2.62 3.95Q2.17 6.47 3.05 8.34Q3.91 10.15 6.1 11.53L7.84 12.63Q7.89 12.66 7.92 12.69Q7.95 12.73 7.98 12.77Q8 12.81 8.02 12.86Q8.03 12.9 8.03 12.95Q8.03 13 8.02 13.05Q8.01 13.1 7.99 13.14Q7.97 13.19 7.94 13.23Q7.91 13.26 7.87 13.29L5.83 14.78L6.38 14.82Q7.88 14.91 9.02 14.68Q10.84 14.32 12.3 13.47Q13.26 12.91 14.03 12.17Q14.46 11.75 14.84 11.28Q15.91 9.92 16.47 8.15Q17.04 6.33 17.04 4.14Q17.04 3.89 16.83 3.5Q16.6 3.1 16.23 2.74Q15.9 2.43 15.52 2.21Q15.39 2.14 15.25 2.08Q15.03 1.98 14.79 1.92Q14.36 1.8 13.9 1.8Q13.6 1.8 13.3 1.85Q13.01 1.91 12.73 2.03Q12.44 2.14 12.19 2.31ZM13.9 2C13.14 2 12.41 2.29 11.87 2.83C11.33 3.36 11.01 4.08 11 4.84L10.97 6.42C10.97 6.5 10.95 6.59 10.91 6.66C10.88 6.74 10.83 6.81 10.76 6.86C10.7 6.92 10.62 6.96 10.54 6.98C10.46 7.01 10.38 7.01 10.29 7L8.73 6.79C6.74 6.52 4.83 5.62 3 4.14C2.94 4.09 2.88 4.04 2.82 3.99C2.81 4.07 2.79 4.14 2.78 4.22C2.28 7.41 3.46 9.63 6.2 11.36L7.95 12.46C8.03 12.51 8.1 12.58 8.15 12.67C8.2 12.75 8.23 12.85 8.23 12.95C8.23 13.05 8.21 13.14 8.17 13.23C8.13 13.32 8.06 13.4 7.98 13.45L6.65 14.43L6.39 14.62C6.5 14.62 6.61 14.63 6.71 14.63C7.54 14.66 8.32 14.62 8.98 14.49C13.7 13.54 16.84 9.99 16.84 4.14C16.84 3.66 15.83 2 13.9 2Z" fill="#000000" fill-opacity="1.000000" fill-rule="evenodd"/>
</svg>
